<svg xmlns="http://www.w3.org/2000/svg" version="1.1" xmlns:xlink="http://www.w3.org/1999/xlink" xmlns:svgjs="http://svgjs.dev/svgjs" width="300" height="350" viewBox="0 0 2000 2250"><g transform="matrix(1,0,0,1,0,0)"><svg viewBox="0 0 320 360" data-background-color="#ffffff" preserveAspectRatio="xMidYMid meet" height="2250" width="2000" xmlns="http://www.w3.org/2000/svg" xmlns:xlink="http://www.w3.org/1999/xlink"><g id="tight-bounds" transform="matrix(1,0,0,1,0,0)"><svg viewBox="0 0 320 360" height="360" width="320"><g><svg></svg></g><g><svg viewBox="0 0 320 360" height="360" width="320"><g><path xmlns="http://www.w3.org/2000/svg" d="M320 141.95l-19.957-19.957v-28.224l-53.812-53.812h-28.223l-19.958-19.957h-76.1l-19.957 19.957h-28.224l-53.812 53.812v28.224l-19.957 19.957v76.104l19.957 19.958v28.223l53.816 53.808h28.224l19.957 19.957h76.104l19.958-19.957h28.223l53.812-53.812v-28.224l19.949-19.957zM244.374 44.437l51.189 51.189v21.887l-73.076-73.076zM295.563 123.849v112.306l-79.408 79.408h-112.306l-79.412-79.412v-112.302l79.412-79.412h112.306zM123.807 24.48h72.39l15.478 15.477h-103.346zM24.437 95.626l51.189-51.189h21.887l-73.076 73.076zM4.484 216.197v-72.394l15.477-15.478v103.342zM75.626 315.563l-51.189-51.189v-21.887l73.076 73.076zM196.197 335.52h-72.39l-15.478-15.477h103.342zM295.563 264.374l-51.189 51.189h-21.887l73.076-73.076zM315.52 216.197l-15.477 15.478v-103.346l15.477 15.478z" fill="#2257bf" fill-rule="nonzero" stroke="none" stroke-width="1" stroke-linecap="butt" stroke-linejoin="miter" stroke-miterlimit="10" stroke-dasharray="" stroke-dashoffset="0" font-family="none" font-weight="none" font-size="none" text-anchor="none" style="mix-blend-mode: normal" data-fill-palette-color="tertiary"></path></g><g transform="matrix(1,0,0,1,56,122.17760617760618)"><svg viewBox="0 0 208 115.64478764478763" height="115.64478764478763" width="208"><g><svg viewBox="0 0 208 115.64478764478763" height="115.64478764478763" width="208"><g><svg viewBox="0 0 208 115.64478764478763" height="115.64478764478763" width="208"><g><svg viewBox="0 0 208 115.64478764478763" height="115.64478764478763" width="208"><g id="textblocktransform"><svg viewBox="0 0 208 115.64478764478763" height="115.64478764478763" width="208" id="textblock"><g><svg viewBox="0 0 208 115.64478764478763" height="115.64478764478763" width="208"><g transform="matrix(1,0,0,1,0,0)"><svg width="208" viewBox="0.699999988079071 -35.75 64.75 36" height="115.64478764478763" data-palette-color="#2257bf"><path d="M0.7 0L15.8-35.5 18-35.5 33 0 30.3 0 25.35-11.7 8.4-11.7 3.45 0 0.7 0ZM9-13.8L24.65-13.8 16.9-32.4 9-13.8ZM51.3 0.25L51.3 0.25Q47.7 0.25 44.65-1.3 41.6-2.85 39.35-5.43 37.1-8 35.87-11.23 34.65-14.45 34.65-17.8L34.65-17.8Q34.65-21.3 35.85-24.53 37.05-27.75 39.25-30.28 41.45-32.8 44.45-34.27 47.45-35.75 51-35.75L51-35.75Q56.3-35.75 59.57-33.58 62.85-31.4 64.55-28L64.55-28 62.45-26.75Q60.65-30.25 57.67-31.83 54.7-33.4 50.95-33.4L50.95-33.4Q47.8-33.4 45.25-32.08 42.7-30.75 40.9-28.53 39.1-26.3 38.15-23.5 37.2-20.7 37.2-17.75L37.2-17.75Q37.2-14.6 38.3-11.8 39.4-9 41.35-6.8 43.3-4.6 45.9-3.35 48.5-2.1 51.45-2.1L51.45-2.1Q54.9-2.1 57.95-3.78 61-5.45 63.8-9.05L63.8-9.05 63.8-6.2Q58.5 0.25 51.3 0.25ZM63.25 0L63.25-15.2 55.2-15.2 55.2-17.25 65.45-17.25 65.45 0 63.25 0Z" opacity="1" transform="matrix(1,0,0,1,0,0)" fill="#2257bf" class="undefined-text-0" data-fill-palette-color="primary" id="text-0"></path></svg></g></svg></g></svg></g></svg></g><g></g></svg></g></svg></g></svg></g></svg></g><defs></defs></svg><rect width="320" height="360" fill="none" stroke="none" visibility="hidden"></rect></g></svg></g></svg>